%TF.GenerationSoftware,KiCad,Pcbnew,5.1.10-88a1d61d58~88~ubuntu20.04.1*%
%TF.CreationDate,2021-05-18T23:57:07+02:00*%
%TF.ProjectId,C152Quadrant,43313532-5175-4616-9472-616e742e6b69,rev?*%
%TF.SameCoordinates,Original*%
%TF.FileFunction,Soldermask,Top*%
%TF.FilePolarity,Negative*%
%FSLAX46Y46*%
G04 Gerber Fmt 4.6, Leading zero omitted, Abs format (unit mm)*
G04 Created by KiCad (PCBNEW 5.1.10-88a1d61d58~88~ubuntu20.04.1) date 2021-05-18 23:57:07*
%MOMM*%
%LPD*%
G01*
G04 APERTURE LIST*
%ADD10C,3.200000*%
%ADD11C,1.524000*%
%ADD12O,1.700000X1.700000*%
%ADD13R,1.700000X1.700000*%
%ADD14R,2.500000X2.000000*%
%ADD15R,2.500000X0.500000*%
%ADD16C,0.900000*%
%ADD17R,2.750000X1.000000*%
%ADD18R,1.560000X0.650000*%
%ADD19C,1.500000*%
%ADD20C,1.000000*%
%ADD21R,2.000000X5.000000*%
%ADD22R,0.900000X0.800000*%
%ADD23C,5.600000*%
G04 APERTURE END LIST*
D10*
%TO.C,RV_MIXT1*%
X190000000Y-94700000D03*
X190000000Y-142200000D03*
D11*
X193750000Y-82200000D03*
X188750000Y-82200000D03*
X193750000Y-152200000D03*
X191250000Y-152200000D03*
X186250000Y-152200000D03*
X188750000Y-152200000D03*
%TD*%
D10*
%TO.C,RV_CARB1*%
X110000000Y-95000000D03*
X110000000Y-142500000D03*
D11*
X113750000Y-82500000D03*
X108750000Y-82500000D03*
X113750000Y-152500000D03*
X111250000Y-152500000D03*
X106250000Y-152500000D03*
X108750000Y-152500000D03*
%TD*%
D10*
%TO.C,RV_THROT1*%
X150000000Y-95000000D03*
X150000000Y-142500000D03*
D11*
X153750000Y-82500000D03*
X148750000Y-82500000D03*
X153750000Y-152500000D03*
X151250000Y-152500000D03*
X146250000Y-152500000D03*
X148750000Y-152500000D03*
%TD*%
%TO.C,C1*%
G36*
G01*
X118100000Y-86237500D02*
X118100000Y-85762500D01*
G75*
G02*
X118337500Y-85525000I237500J0D01*
G01*
X118937500Y-85525000D01*
G75*
G02*
X119175000Y-85762500I0J-237500D01*
G01*
X119175000Y-86237500D01*
G75*
G02*
X118937500Y-86475000I-237500J0D01*
G01*
X118337500Y-86475000D01*
G75*
G02*
X118100000Y-86237500I0J237500D01*
G01*
G37*
G36*
G01*
X119825000Y-86237500D02*
X119825000Y-85762500D01*
G75*
G02*
X120062500Y-85525000I237500J0D01*
G01*
X120662500Y-85525000D01*
G75*
G02*
X120900000Y-85762500I0J-237500D01*
G01*
X120900000Y-86237500D01*
G75*
G02*
X120662500Y-86475000I-237500J0D01*
G01*
X120062500Y-86475000D01*
G75*
G02*
X119825000Y-86237500I0J237500D01*
G01*
G37*
%TD*%
%TO.C,C2*%
G36*
G01*
X212762500Y-119200000D02*
X213237500Y-119200000D01*
G75*
G02*
X213475000Y-119437500I0J-237500D01*
G01*
X213475000Y-120037500D01*
G75*
G02*
X213237500Y-120275000I-237500J0D01*
G01*
X212762500Y-120275000D01*
G75*
G02*
X212525000Y-120037500I0J237500D01*
G01*
X212525000Y-119437500D01*
G75*
G02*
X212762500Y-119200000I237500J0D01*
G01*
G37*
G36*
G01*
X212762500Y-120925000D02*
X213237500Y-120925000D01*
G75*
G02*
X213475000Y-121162500I0J-237500D01*
G01*
X213475000Y-121762500D01*
G75*
G02*
X213237500Y-122000000I-237500J0D01*
G01*
X212762500Y-122000000D01*
G75*
G02*
X212525000Y-121762500I0J237500D01*
G01*
X212525000Y-121162500D01*
G75*
G02*
X212762500Y-120925000I237500J0D01*
G01*
G37*
%TD*%
%TO.C,C3*%
G36*
G01*
X118100000Y-90987500D02*
X118100000Y-90512500D01*
G75*
G02*
X118337500Y-90275000I237500J0D01*
G01*
X118937500Y-90275000D01*
G75*
G02*
X119175000Y-90512500I0J-237500D01*
G01*
X119175000Y-90987500D01*
G75*
G02*
X118937500Y-91225000I-237500J0D01*
G01*
X118337500Y-91225000D01*
G75*
G02*
X118100000Y-90987500I0J237500D01*
G01*
G37*
G36*
G01*
X119825000Y-90987500D02*
X119825000Y-90512500D01*
G75*
G02*
X120062500Y-90275000I237500J0D01*
G01*
X120662500Y-90275000D01*
G75*
G02*
X120900000Y-90512500I0J-237500D01*
G01*
X120900000Y-90987500D01*
G75*
G02*
X120662500Y-91225000I-237500J0D01*
G01*
X120062500Y-91225000D01*
G75*
G02*
X119825000Y-90987500I0J237500D01*
G01*
G37*
%TD*%
%TO.C,C4*%
G36*
G01*
X210162500Y-120925000D02*
X210637500Y-120925000D01*
G75*
G02*
X210875000Y-121162500I0J-237500D01*
G01*
X210875000Y-121762500D01*
G75*
G02*
X210637500Y-122000000I-237500J0D01*
G01*
X210162500Y-122000000D01*
G75*
G02*
X209925000Y-121762500I0J237500D01*
G01*
X209925000Y-121162500D01*
G75*
G02*
X210162500Y-120925000I237500J0D01*
G01*
G37*
G36*
G01*
X210162500Y-119200000D02*
X210637500Y-119200000D01*
G75*
G02*
X210875000Y-119437500I0J-237500D01*
G01*
X210875000Y-120037500D01*
G75*
G02*
X210637500Y-120275000I-237500J0D01*
G01*
X210162500Y-120275000D01*
G75*
G02*
X209925000Y-120037500I0J237500D01*
G01*
X209925000Y-119437500D01*
G75*
G02*
X210162500Y-119200000I237500J0D01*
G01*
G37*
%TD*%
%TO.C,C5*%
G36*
G01*
X159800000Y-83437500D02*
X159800000Y-82962500D01*
G75*
G02*
X160037500Y-82725000I237500J0D01*
G01*
X160637500Y-82725000D01*
G75*
G02*
X160875000Y-82962500I0J-237500D01*
G01*
X160875000Y-83437500D01*
G75*
G02*
X160637500Y-83675000I-237500J0D01*
G01*
X160037500Y-83675000D01*
G75*
G02*
X159800000Y-83437500I0J237500D01*
G01*
G37*
G36*
G01*
X161525000Y-83437500D02*
X161525000Y-82962500D01*
G75*
G02*
X161762500Y-82725000I237500J0D01*
G01*
X162362500Y-82725000D01*
G75*
G02*
X162600000Y-82962500I0J-237500D01*
G01*
X162600000Y-83437500D01*
G75*
G02*
X162362500Y-83675000I-237500J0D01*
G01*
X161762500Y-83675000D01*
G75*
G02*
X161525000Y-83437500I0J237500D01*
G01*
G37*
%TD*%
%TO.C,C6*%
G36*
G01*
X161525000Y-87637500D02*
X161525000Y-87162500D01*
G75*
G02*
X161762500Y-86925000I237500J0D01*
G01*
X162362500Y-86925000D01*
G75*
G02*
X162600000Y-87162500I0J-237500D01*
G01*
X162600000Y-87637500D01*
G75*
G02*
X162362500Y-87875000I-237500J0D01*
G01*
X161762500Y-87875000D01*
G75*
G02*
X161525000Y-87637500I0J237500D01*
G01*
G37*
G36*
G01*
X159800000Y-87637500D02*
X159800000Y-87162500D01*
G75*
G02*
X160037500Y-86925000I237500J0D01*
G01*
X160637500Y-86925000D01*
G75*
G02*
X160875000Y-87162500I0J-237500D01*
G01*
X160875000Y-87637500D01*
G75*
G02*
X160637500Y-87875000I-237500J0D01*
G01*
X160037500Y-87875000D01*
G75*
G02*
X159800000Y-87637500I0J237500D01*
G01*
G37*
%TD*%
%TO.C,C7*%
G36*
G01*
X210162500Y-124200000D02*
X210637500Y-124200000D01*
G75*
G02*
X210875000Y-124437500I0J-237500D01*
G01*
X210875000Y-125037500D01*
G75*
G02*
X210637500Y-125275000I-237500J0D01*
G01*
X210162500Y-125275000D01*
G75*
G02*
X209925000Y-125037500I0J237500D01*
G01*
X209925000Y-124437500D01*
G75*
G02*
X210162500Y-124200000I237500J0D01*
G01*
G37*
G36*
G01*
X210162500Y-125925000D02*
X210637500Y-125925000D01*
G75*
G02*
X210875000Y-126162500I0J-237500D01*
G01*
X210875000Y-126762500D01*
G75*
G02*
X210637500Y-127000000I-237500J0D01*
G01*
X210162500Y-127000000D01*
G75*
G02*
X209925000Y-126762500I0J237500D01*
G01*
X209925000Y-126162500D01*
G75*
G02*
X210162500Y-125925000I237500J0D01*
G01*
G37*
%TD*%
%TO.C,C8*%
G36*
G01*
X212962500Y-125925000D02*
X213437500Y-125925000D01*
G75*
G02*
X213675000Y-126162500I0J-237500D01*
G01*
X213675000Y-126762500D01*
G75*
G02*
X213437500Y-127000000I-237500J0D01*
G01*
X212962500Y-127000000D01*
G75*
G02*
X212725000Y-126762500I0J237500D01*
G01*
X212725000Y-126162500D01*
G75*
G02*
X212962500Y-125925000I237500J0D01*
G01*
G37*
G36*
G01*
X212962500Y-124200000D02*
X213437500Y-124200000D01*
G75*
G02*
X213675000Y-124437500I0J-237500D01*
G01*
X213675000Y-125037500D01*
G75*
G02*
X213437500Y-125275000I-237500J0D01*
G01*
X212962500Y-125275000D01*
G75*
G02*
X212725000Y-125037500I0J237500D01*
G01*
X212725000Y-124437500D01*
G75*
G02*
X212962500Y-124200000I237500J0D01*
G01*
G37*
%TD*%
%TO.C,C9*%
G36*
G01*
X183400000Y-142762500D02*
X183400000Y-143237500D01*
G75*
G02*
X183162500Y-143475000I-237500J0D01*
G01*
X182562500Y-143475000D01*
G75*
G02*
X182325000Y-143237500I0J237500D01*
G01*
X182325000Y-142762500D01*
G75*
G02*
X182562500Y-142525000I237500J0D01*
G01*
X183162500Y-142525000D01*
G75*
G02*
X183400000Y-142762500I0J-237500D01*
G01*
G37*
G36*
G01*
X181675000Y-142762500D02*
X181675000Y-143237500D01*
G75*
G02*
X181437500Y-143475000I-237500J0D01*
G01*
X180837500Y-143475000D01*
G75*
G02*
X180600000Y-143237500I0J237500D01*
G01*
X180600000Y-142762500D01*
G75*
G02*
X180837500Y-142525000I237500J0D01*
G01*
X181437500Y-142525000D01*
G75*
G02*
X181675000Y-142762500I0J-237500D01*
G01*
G37*
%TD*%
%TO.C,C10*%
G36*
G01*
X181675000Y-146362500D02*
X181675000Y-146837500D01*
G75*
G02*
X181437500Y-147075000I-237500J0D01*
G01*
X180837500Y-147075000D01*
G75*
G02*
X180600000Y-146837500I0J237500D01*
G01*
X180600000Y-146362500D01*
G75*
G02*
X180837500Y-146125000I237500J0D01*
G01*
X181437500Y-146125000D01*
G75*
G02*
X181675000Y-146362500I0J-237500D01*
G01*
G37*
G36*
G01*
X183400000Y-146362500D02*
X183400000Y-146837500D01*
G75*
G02*
X183162500Y-147075000I-237500J0D01*
G01*
X182562500Y-147075000D01*
G75*
G02*
X182325000Y-146837500I0J237500D01*
G01*
X182325000Y-146362500D01*
G75*
G02*
X182562500Y-146125000I237500J0D01*
G01*
X183162500Y-146125000D01*
G75*
G02*
X183400000Y-146362500I0J-237500D01*
G01*
G37*
%TD*%
%TO.C,C11*%
G36*
G01*
X218725000Y-84637500D02*
X218725000Y-84162500D01*
G75*
G02*
X218962500Y-83925000I237500J0D01*
G01*
X219562500Y-83925000D01*
G75*
G02*
X219800000Y-84162500I0J-237500D01*
G01*
X219800000Y-84637500D01*
G75*
G02*
X219562500Y-84875000I-237500J0D01*
G01*
X218962500Y-84875000D01*
G75*
G02*
X218725000Y-84637500I0J237500D01*
G01*
G37*
G36*
G01*
X217000000Y-84637500D02*
X217000000Y-84162500D01*
G75*
G02*
X217237500Y-83925000I237500J0D01*
G01*
X217837500Y-83925000D01*
G75*
G02*
X218075000Y-84162500I0J-237500D01*
G01*
X218075000Y-84637500D01*
G75*
G02*
X217837500Y-84875000I-237500J0D01*
G01*
X217237500Y-84875000D01*
G75*
G02*
X217000000Y-84637500I0J237500D01*
G01*
G37*
%TD*%
%TO.C,C12*%
G36*
G01*
X207200000Y-84637500D02*
X207200000Y-84162500D01*
G75*
G02*
X207437500Y-83925000I237500J0D01*
G01*
X208037500Y-83925000D01*
G75*
G02*
X208275000Y-84162500I0J-237500D01*
G01*
X208275000Y-84637500D01*
G75*
G02*
X208037500Y-84875000I-237500J0D01*
G01*
X207437500Y-84875000D01*
G75*
G02*
X207200000Y-84637500I0J237500D01*
G01*
G37*
G36*
G01*
X208925000Y-84637500D02*
X208925000Y-84162500D01*
G75*
G02*
X209162500Y-83925000I237500J0D01*
G01*
X209762500Y-83925000D01*
G75*
G02*
X210000000Y-84162500I0J-237500D01*
G01*
X210000000Y-84637500D01*
G75*
G02*
X209762500Y-84875000I-237500J0D01*
G01*
X209162500Y-84875000D01*
G75*
G02*
X208925000Y-84637500I0J237500D01*
G01*
G37*
%TD*%
%TO.C,C13*%
G36*
G01*
X227675000Y-86137500D02*
X227675000Y-85662500D01*
G75*
G02*
X227912500Y-85425000I237500J0D01*
G01*
X228512500Y-85425000D01*
G75*
G02*
X228750000Y-85662500I0J-237500D01*
G01*
X228750000Y-86137500D01*
G75*
G02*
X228512500Y-86375000I-237500J0D01*
G01*
X227912500Y-86375000D01*
G75*
G02*
X227675000Y-86137500I0J237500D01*
G01*
G37*
G36*
G01*
X225950000Y-86137500D02*
X225950000Y-85662500D01*
G75*
G02*
X226187500Y-85425000I237500J0D01*
G01*
X226787500Y-85425000D01*
G75*
G02*
X227025000Y-85662500I0J-237500D01*
G01*
X227025000Y-86137500D01*
G75*
G02*
X226787500Y-86375000I-237500J0D01*
G01*
X226187500Y-86375000D01*
G75*
G02*
X225950000Y-86137500I0J237500D01*
G01*
G37*
%TD*%
%TO.C,C14*%
G36*
G01*
X225250000Y-85662500D02*
X225250000Y-86137500D01*
G75*
G02*
X225012500Y-86375000I-237500J0D01*
G01*
X224412500Y-86375000D01*
G75*
G02*
X224175000Y-86137500I0J237500D01*
G01*
X224175000Y-85662500D01*
G75*
G02*
X224412500Y-85425000I237500J0D01*
G01*
X225012500Y-85425000D01*
G75*
G02*
X225250000Y-85662500I0J-237500D01*
G01*
G37*
G36*
G01*
X223525000Y-85662500D02*
X223525000Y-86137500D01*
G75*
G02*
X223287500Y-86375000I-237500J0D01*
G01*
X222687500Y-86375000D01*
G75*
G02*
X222450000Y-86137500I0J237500D01*
G01*
X222450000Y-85662500D01*
G75*
G02*
X222687500Y-85425000I237500J0D01*
G01*
X223287500Y-85425000D01*
G75*
G02*
X223525000Y-85662500I0J-237500D01*
G01*
G37*
%TD*%
%TO.C,C15*%
G36*
G01*
X177825000Y-83487500D02*
X177825000Y-83012500D01*
G75*
G02*
X178062500Y-82775000I237500J0D01*
G01*
X178662500Y-82775000D01*
G75*
G02*
X178900000Y-83012500I0J-237500D01*
G01*
X178900000Y-83487500D01*
G75*
G02*
X178662500Y-83725000I-237500J0D01*
G01*
X178062500Y-83725000D01*
G75*
G02*
X177825000Y-83487500I0J237500D01*
G01*
G37*
G36*
G01*
X176100000Y-83487500D02*
X176100000Y-83012500D01*
G75*
G02*
X176337500Y-82775000I237500J0D01*
G01*
X176937500Y-82775000D01*
G75*
G02*
X177175000Y-83012500I0J-237500D01*
G01*
X177175000Y-83487500D01*
G75*
G02*
X176937500Y-83725000I-237500J0D01*
G01*
X176337500Y-83725000D01*
G75*
G02*
X176100000Y-83487500I0J237500D01*
G01*
G37*
%TD*%
%TO.C,C17*%
G36*
G01*
X221262500Y-105237500D02*
X221262500Y-104762500D01*
G75*
G02*
X221500000Y-104525000I237500J0D01*
G01*
X222100000Y-104525000D01*
G75*
G02*
X222337500Y-104762500I0J-237500D01*
G01*
X222337500Y-105237500D01*
G75*
G02*
X222100000Y-105475000I-237500J0D01*
G01*
X221500000Y-105475000D01*
G75*
G02*
X221262500Y-105237500I0J237500D01*
G01*
G37*
G36*
G01*
X219537500Y-105237500D02*
X219537500Y-104762500D01*
G75*
G02*
X219775000Y-104525000I237500J0D01*
G01*
X220375000Y-104525000D01*
G75*
G02*
X220612500Y-104762500I0J-237500D01*
G01*
X220612500Y-105237500D01*
G75*
G02*
X220375000Y-105475000I-237500J0D01*
G01*
X219775000Y-105475000D01*
G75*
G02*
X219537500Y-105237500I0J237500D01*
G01*
G37*
%TD*%
%TO.C,C18*%
G36*
G01*
X210962500Y-96800000D02*
X211437500Y-96800000D01*
G75*
G02*
X211675000Y-97037500I0J-237500D01*
G01*
X211675000Y-97637500D01*
G75*
G02*
X211437500Y-97875000I-237500J0D01*
G01*
X210962500Y-97875000D01*
G75*
G02*
X210725000Y-97637500I0J237500D01*
G01*
X210725000Y-97037500D01*
G75*
G02*
X210962500Y-96800000I237500J0D01*
G01*
G37*
G36*
G01*
X210962500Y-98525000D02*
X211437500Y-98525000D01*
G75*
G02*
X211675000Y-98762500I0J-237500D01*
G01*
X211675000Y-99362500D01*
G75*
G02*
X211437500Y-99600000I-237500J0D01*
G01*
X210962500Y-99600000D01*
G75*
G02*
X210725000Y-99362500I0J237500D01*
G01*
X210725000Y-98762500D01*
G75*
G02*
X210962500Y-98525000I237500J0D01*
G01*
G37*
%TD*%
%TO.C,C19*%
G36*
G01*
X211875000Y-88362500D02*
X211875000Y-88837500D01*
G75*
G02*
X211637500Y-89075000I-237500J0D01*
G01*
X211037500Y-89075000D01*
G75*
G02*
X210800000Y-88837500I0J237500D01*
G01*
X210800000Y-88362500D01*
G75*
G02*
X211037500Y-88125000I237500J0D01*
G01*
X211637500Y-88125000D01*
G75*
G02*
X211875000Y-88362500I0J-237500D01*
G01*
G37*
G36*
G01*
X213600000Y-88362500D02*
X213600000Y-88837500D01*
G75*
G02*
X213362500Y-89075000I-237500J0D01*
G01*
X212762500Y-89075000D01*
G75*
G02*
X212525000Y-88837500I0J237500D01*
G01*
X212525000Y-88362500D01*
G75*
G02*
X212762500Y-88125000I237500J0D01*
G01*
X213362500Y-88125000D01*
G75*
G02*
X213600000Y-88362500I0J-237500D01*
G01*
G37*
%TD*%
%TO.C,C20*%
G36*
G01*
X228837500Y-95200000D02*
X228362500Y-95200000D01*
G75*
G02*
X228125000Y-94962500I0J237500D01*
G01*
X228125000Y-94362500D01*
G75*
G02*
X228362500Y-94125000I237500J0D01*
G01*
X228837500Y-94125000D01*
G75*
G02*
X229075000Y-94362500I0J-237500D01*
G01*
X229075000Y-94962500D01*
G75*
G02*
X228837500Y-95200000I-237500J0D01*
G01*
G37*
G36*
G01*
X228837500Y-93475000D02*
X228362500Y-93475000D01*
G75*
G02*
X228125000Y-93237500I0J237500D01*
G01*
X228125000Y-92637500D01*
G75*
G02*
X228362500Y-92400000I237500J0D01*
G01*
X228837500Y-92400000D01*
G75*
G02*
X229075000Y-92637500I0J-237500D01*
G01*
X229075000Y-93237500D01*
G75*
G02*
X228837500Y-93475000I-237500J0D01*
G01*
G37*
%TD*%
D12*
%TO.C,ENC_ALT1*%
X227420000Y-110600000D03*
X229960000Y-110600000D03*
D13*
X232500000Y-110600000D03*
%TD*%
%TO.C,ENC_COMP1*%
X232500000Y-116266666D03*
D12*
X229960000Y-116266666D03*
X227420000Y-116266666D03*
%TD*%
%TO.C,ENC_NAV1_SW1*%
X227420000Y-121933332D03*
X229960000Y-121933332D03*
D13*
X232500000Y-121933332D03*
%TD*%
%TO.C,ENC_NAV2_SW1*%
X232500000Y-127600000D03*
D12*
X229960000Y-127600000D03*
X227420000Y-127600000D03*
%TD*%
D13*
%TO.C,J1*%
X232400000Y-92400000D03*
D12*
X234940000Y-92400000D03*
X232400000Y-94940000D03*
X234940000Y-94940000D03*
X232400000Y-97480000D03*
X234940000Y-97480000D03*
%TD*%
D14*
%TO.C,J2*%
X237900000Y-144400000D03*
X237900000Y-135600000D03*
X232400000Y-144400000D03*
X232400000Y-135600000D03*
D15*
X232400000Y-141600000D03*
X232400000Y-140800000D03*
X232400000Y-140000000D03*
X232400000Y-139200000D03*
X232400000Y-138400000D03*
D16*
X235000000Y-142200000D03*
X235000000Y-137800000D03*
%TD*%
D13*
%TO.C,PWRLED1*%
X219600000Y-155200000D03*
D12*
X217060000Y-155200000D03*
%TD*%
%TO.C,R1*%
G36*
G01*
X216237500Y-150175000D02*
X215762500Y-150175000D01*
G75*
G02*
X215525000Y-149937500I0J237500D01*
G01*
X215525000Y-149437500D01*
G75*
G02*
X215762500Y-149200000I237500J0D01*
G01*
X216237500Y-149200000D01*
G75*
G02*
X216475000Y-149437500I0J-237500D01*
G01*
X216475000Y-149937500D01*
G75*
G02*
X216237500Y-150175000I-237500J0D01*
G01*
G37*
G36*
G01*
X216237500Y-152000000D02*
X215762500Y-152000000D01*
G75*
G02*
X215525000Y-151762500I0J237500D01*
G01*
X215525000Y-151262500D01*
G75*
G02*
X215762500Y-151025000I237500J0D01*
G01*
X216237500Y-151025000D01*
G75*
G02*
X216475000Y-151262500I0J-237500D01*
G01*
X216475000Y-151762500D01*
G75*
G02*
X216237500Y-152000000I-237500J0D01*
G01*
G37*
%TD*%
%TO.C,R2*%
G36*
G01*
X179000000Y-86962500D02*
X179000000Y-87437500D01*
G75*
G02*
X178762500Y-87675000I-237500J0D01*
G01*
X178262500Y-87675000D01*
G75*
G02*
X178025000Y-87437500I0J237500D01*
G01*
X178025000Y-86962500D01*
G75*
G02*
X178262500Y-86725000I237500J0D01*
G01*
X178762500Y-86725000D01*
G75*
G02*
X179000000Y-86962500I0J-237500D01*
G01*
G37*
G36*
G01*
X177175000Y-86962500D02*
X177175000Y-87437500D01*
G75*
G02*
X176937500Y-87675000I-237500J0D01*
G01*
X176437500Y-87675000D01*
G75*
G02*
X176200000Y-87437500I0J237500D01*
G01*
X176200000Y-86962500D01*
G75*
G02*
X176437500Y-86725000I237500J0D01*
G01*
X176937500Y-86725000D01*
G75*
G02*
X177175000Y-86962500I0J-237500D01*
G01*
G37*
%TD*%
%TO.C,R3*%
G36*
G01*
X213175000Y-84162500D02*
X213175000Y-84637500D01*
G75*
G02*
X212937500Y-84875000I-237500J0D01*
G01*
X212437500Y-84875000D01*
G75*
G02*
X212200000Y-84637500I0J237500D01*
G01*
X212200000Y-84162500D01*
G75*
G02*
X212437500Y-83925000I237500J0D01*
G01*
X212937500Y-83925000D01*
G75*
G02*
X213175000Y-84162500I0J-237500D01*
G01*
G37*
G36*
G01*
X215000000Y-84162500D02*
X215000000Y-84637500D01*
G75*
G02*
X214762500Y-84875000I-237500J0D01*
G01*
X214262500Y-84875000D01*
G75*
G02*
X214025000Y-84637500I0J237500D01*
G01*
X214025000Y-84162500D01*
G75*
G02*
X214262500Y-83925000I237500J0D01*
G01*
X214762500Y-83925000D01*
G75*
G02*
X215000000Y-84162500I0J-237500D01*
G01*
G37*
%TD*%
%TO.C,R4*%
G36*
G01*
X231637500Y-87775000D02*
X231162500Y-87775000D01*
G75*
G02*
X230925000Y-87537500I0J237500D01*
G01*
X230925000Y-87037500D01*
G75*
G02*
X231162500Y-86800000I237500J0D01*
G01*
X231637500Y-86800000D01*
G75*
G02*
X231875000Y-87037500I0J-237500D01*
G01*
X231875000Y-87537500D01*
G75*
G02*
X231637500Y-87775000I-237500J0D01*
G01*
G37*
G36*
G01*
X231637500Y-89600000D02*
X231162500Y-89600000D01*
G75*
G02*
X230925000Y-89362500I0J237500D01*
G01*
X230925000Y-88862500D01*
G75*
G02*
X231162500Y-88625000I237500J0D01*
G01*
X231637500Y-88625000D01*
G75*
G02*
X231875000Y-88862500I0J-237500D01*
G01*
X231875000Y-89362500D01*
G75*
G02*
X231637500Y-89600000I-237500J0D01*
G01*
G37*
%TD*%
%TO.C,R5*%
G36*
G01*
X235762500Y-86600000D02*
X236237500Y-86600000D01*
G75*
G02*
X236475000Y-86837500I0J-237500D01*
G01*
X236475000Y-87337500D01*
G75*
G02*
X236237500Y-87575000I-237500J0D01*
G01*
X235762500Y-87575000D01*
G75*
G02*
X235525000Y-87337500I0J237500D01*
G01*
X235525000Y-86837500D01*
G75*
G02*
X235762500Y-86600000I237500J0D01*
G01*
G37*
G36*
G01*
X235762500Y-88425000D02*
X236237500Y-88425000D01*
G75*
G02*
X236475000Y-88662500I0J-237500D01*
G01*
X236475000Y-89162500D01*
G75*
G02*
X236237500Y-89400000I-237500J0D01*
G01*
X235762500Y-89400000D01*
G75*
G02*
X235525000Y-89162500I0J237500D01*
G01*
X235525000Y-88662500D01*
G75*
G02*
X235762500Y-88425000I237500J0D01*
G01*
G37*
%TD*%
%TO.C,R6*%
G36*
G01*
X225262500Y-138925000D02*
X225737500Y-138925000D01*
G75*
G02*
X225975000Y-139162500I0J-237500D01*
G01*
X225975000Y-139662500D01*
G75*
G02*
X225737500Y-139900000I-237500J0D01*
G01*
X225262500Y-139900000D01*
G75*
G02*
X225025000Y-139662500I0J237500D01*
G01*
X225025000Y-139162500D01*
G75*
G02*
X225262500Y-138925000I237500J0D01*
G01*
G37*
G36*
G01*
X225262500Y-137100000D02*
X225737500Y-137100000D01*
G75*
G02*
X225975000Y-137337500I0J-237500D01*
G01*
X225975000Y-137837500D01*
G75*
G02*
X225737500Y-138075000I-237500J0D01*
G01*
X225262500Y-138075000D01*
G75*
G02*
X225025000Y-137837500I0J237500D01*
G01*
X225025000Y-137337500D01*
G75*
G02*
X225262500Y-137100000I237500J0D01*
G01*
G37*
%TD*%
%TO.C,R7*%
G36*
G01*
X222012500Y-137100000D02*
X222487500Y-137100000D01*
G75*
G02*
X222725000Y-137337500I0J-237500D01*
G01*
X222725000Y-137837500D01*
G75*
G02*
X222487500Y-138075000I-237500J0D01*
G01*
X222012500Y-138075000D01*
G75*
G02*
X221775000Y-137837500I0J237500D01*
G01*
X221775000Y-137337500D01*
G75*
G02*
X222012500Y-137100000I237500J0D01*
G01*
G37*
G36*
G01*
X222012500Y-138925000D02*
X222487500Y-138925000D01*
G75*
G02*
X222725000Y-139162500I0J-237500D01*
G01*
X222725000Y-139662500D01*
G75*
G02*
X222487500Y-139900000I-237500J0D01*
G01*
X222012500Y-139900000D01*
G75*
G02*
X221775000Y-139662500I0J237500D01*
G01*
X221775000Y-139162500D01*
G75*
G02*
X222012500Y-138925000I237500J0D01*
G01*
G37*
%TD*%
%TO.C,R8*%
G36*
G01*
X225737500Y-136200000D02*
X225262500Y-136200000D01*
G75*
G02*
X225025000Y-135962500I0J237500D01*
G01*
X225025000Y-135462500D01*
G75*
G02*
X225262500Y-135225000I237500J0D01*
G01*
X225737500Y-135225000D01*
G75*
G02*
X225975000Y-135462500I0J-237500D01*
G01*
X225975000Y-135962500D01*
G75*
G02*
X225737500Y-136200000I-237500J0D01*
G01*
G37*
G36*
G01*
X225737500Y-134375000D02*
X225262500Y-134375000D01*
G75*
G02*
X225025000Y-134137500I0J237500D01*
G01*
X225025000Y-133637500D01*
G75*
G02*
X225262500Y-133400000I237500J0D01*
G01*
X225737500Y-133400000D01*
G75*
G02*
X225975000Y-133637500I0J-237500D01*
G01*
X225975000Y-134137500D01*
G75*
G02*
X225737500Y-134375000I-237500J0D01*
G01*
G37*
%TD*%
%TO.C,RV_FLAPS1*%
X201170000Y-125950000D03*
X203710000Y-125950000D03*
D13*
X206250000Y-125950000D03*
%TD*%
%TO.C,RV_TRIM1*%
X206250000Y-120783332D03*
D12*
X203710000Y-120783332D03*
X201170000Y-120783332D03*
%TD*%
D13*
%TO.C,STLNK1*%
X227400000Y-105400000D03*
D12*
X229940000Y-105400000D03*
X232480000Y-105400000D03*
X235020000Y-105400000D03*
%TD*%
D17*
%TO.C,SW1*%
X172380000Y-83250000D03*
X166620000Y-83250000D03*
X166620000Y-87250000D03*
X172380000Y-87250000D03*
%TD*%
%TO.C,U1*%
G36*
G01*
X220075000Y-91100000D02*
X220225000Y-91100000D01*
G75*
G02*
X220300000Y-91175000I0J-75000D01*
G01*
X220300000Y-92500000D01*
G75*
G02*
X220225000Y-92575000I-75000J0D01*
G01*
X220075000Y-92575000D01*
G75*
G02*
X220000000Y-92500000I0J75000D01*
G01*
X220000000Y-91175000D01*
G75*
G02*
X220075000Y-91100000I75000J0D01*
G01*
G37*
G36*
G01*
X219575000Y-91100000D02*
X219725000Y-91100000D01*
G75*
G02*
X219800000Y-91175000I0J-75000D01*
G01*
X219800000Y-92500000D01*
G75*
G02*
X219725000Y-92575000I-75000J0D01*
G01*
X219575000Y-92575000D01*
G75*
G02*
X219500000Y-92500000I0J75000D01*
G01*
X219500000Y-91175000D01*
G75*
G02*
X219575000Y-91100000I75000J0D01*
G01*
G37*
G36*
G01*
X219075000Y-91100000D02*
X219225000Y-91100000D01*
G75*
G02*
X219300000Y-91175000I0J-75000D01*
G01*
X219300000Y-92500000D01*
G75*
G02*
X219225000Y-92575000I-75000J0D01*
G01*
X219075000Y-92575000D01*
G75*
G02*
X219000000Y-92500000I0J75000D01*
G01*
X219000000Y-91175000D01*
G75*
G02*
X219075000Y-91100000I75000J0D01*
G01*
G37*
G36*
G01*
X218575000Y-91100000D02*
X218725000Y-91100000D01*
G75*
G02*
X218800000Y-91175000I0J-75000D01*
G01*
X218800000Y-92500000D01*
G75*
G02*
X218725000Y-92575000I-75000J0D01*
G01*
X218575000Y-92575000D01*
G75*
G02*
X218500000Y-92500000I0J75000D01*
G01*
X218500000Y-91175000D01*
G75*
G02*
X218575000Y-91100000I75000J0D01*
G01*
G37*
G36*
G01*
X218075000Y-91100000D02*
X218225000Y-91100000D01*
G75*
G02*
X218300000Y-91175000I0J-75000D01*
G01*
X218300000Y-92500000D01*
G75*
G02*
X218225000Y-92575000I-75000J0D01*
G01*
X218075000Y-92575000D01*
G75*
G02*
X218000000Y-92500000I0J75000D01*
G01*
X218000000Y-91175000D01*
G75*
G02*
X218075000Y-91100000I75000J0D01*
G01*
G37*
G36*
G01*
X217575000Y-91100000D02*
X217725000Y-91100000D01*
G75*
G02*
X217800000Y-91175000I0J-75000D01*
G01*
X217800000Y-92500000D01*
G75*
G02*
X217725000Y-92575000I-75000J0D01*
G01*
X217575000Y-92575000D01*
G75*
G02*
X217500000Y-92500000I0J75000D01*
G01*
X217500000Y-91175000D01*
G75*
G02*
X217575000Y-91100000I75000J0D01*
G01*
G37*
G36*
G01*
X217075000Y-91100000D02*
X217225000Y-91100000D01*
G75*
G02*
X217300000Y-91175000I0J-75000D01*
G01*
X217300000Y-92500000D01*
G75*
G02*
X217225000Y-92575000I-75000J0D01*
G01*
X217075000Y-92575000D01*
G75*
G02*
X217000000Y-92500000I0J75000D01*
G01*
X217000000Y-91175000D01*
G75*
G02*
X217075000Y-91100000I75000J0D01*
G01*
G37*
G36*
G01*
X216575000Y-91100000D02*
X216725000Y-91100000D01*
G75*
G02*
X216800000Y-91175000I0J-75000D01*
G01*
X216800000Y-92500000D01*
G75*
G02*
X216725000Y-92575000I-75000J0D01*
G01*
X216575000Y-92575000D01*
G75*
G02*
X216500000Y-92500000I0J75000D01*
G01*
X216500000Y-91175000D01*
G75*
G02*
X216575000Y-91100000I75000J0D01*
G01*
G37*
G36*
G01*
X216075000Y-91100000D02*
X216225000Y-91100000D01*
G75*
G02*
X216300000Y-91175000I0J-75000D01*
G01*
X216300000Y-92500000D01*
G75*
G02*
X216225000Y-92575000I-75000J0D01*
G01*
X216075000Y-92575000D01*
G75*
G02*
X216000000Y-92500000I0J75000D01*
G01*
X216000000Y-91175000D01*
G75*
G02*
X216075000Y-91100000I75000J0D01*
G01*
G37*
G36*
G01*
X215575000Y-91100000D02*
X215725000Y-91100000D01*
G75*
G02*
X215800000Y-91175000I0J-75000D01*
G01*
X215800000Y-92500000D01*
G75*
G02*
X215725000Y-92575000I-75000J0D01*
G01*
X215575000Y-92575000D01*
G75*
G02*
X215500000Y-92500000I0J75000D01*
G01*
X215500000Y-91175000D01*
G75*
G02*
X215575000Y-91100000I75000J0D01*
G01*
G37*
G36*
G01*
X215075000Y-91100000D02*
X215225000Y-91100000D01*
G75*
G02*
X215300000Y-91175000I0J-75000D01*
G01*
X215300000Y-92500000D01*
G75*
G02*
X215225000Y-92575000I-75000J0D01*
G01*
X215075000Y-92575000D01*
G75*
G02*
X215000000Y-92500000I0J75000D01*
G01*
X215000000Y-91175000D01*
G75*
G02*
X215075000Y-91100000I75000J0D01*
G01*
G37*
G36*
G01*
X214575000Y-91100000D02*
X214725000Y-91100000D01*
G75*
G02*
X214800000Y-91175000I0J-75000D01*
G01*
X214800000Y-92500000D01*
G75*
G02*
X214725000Y-92575000I-75000J0D01*
G01*
X214575000Y-92575000D01*
G75*
G02*
X214500000Y-92500000I0J75000D01*
G01*
X214500000Y-91175000D01*
G75*
G02*
X214575000Y-91100000I75000J0D01*
G01*
G37*
G36*
G01*
X212575000Y-93100000D02*
X213900000Y-93100000D01*
G75*
G02*
X213975000Y-93175000I0J-75000D01*
G01*
X213975000Y-93325000D01*
G75*
G02*
X213900000Y-93400000I-75000J0D01*
G01*
X212575000Y-93400000D01*
G75*
G02*
X212500000Y-93325000I0J75000D01*
G01*
X212500000Y-93175000D01*
G75*
G02*
X212575000Y-93100000I75000J0D01*
G01*
G37*
G36*
G01*
X212575000Y-93600000D02*
X213900000Y-93600000D01*
G75*
G02*
X213975000Y-93675000I0J-75000D01*
G01*
X213975000Y-93825000D01*
G75*
G02*
X213900000Y-93900000I-75000J0D01*
G01*
X212575000Y-93900000D01*
G75*
G02*
X212500000Y-93825000I0J75000D01*
G01*
X212500000Y-93675000D01*
G75*
G02*
X212575000Y-93600000I75000J0D01*
G01*
G37*
G36*
G01*
X212575000Y-94100000D02*
X213900000Y-94100000D01*
G75*
G02*
X213975000Y-94175000I0J-75000D01*
G01*
X213975000Y-94325000D01*
G75*
G02*
X213900000Y-94400000I-75000J0D01*
G01*
X212575000Y-94400000D01*
G75*
G02*
X212500000Y-94325000I0J75000D01*
G01*
X212500000Y-94175000D01*
G75*
G02*
X212575000Y-94100000I75000J0D01*
G01*
G37*
G36*
G01*
X212575000Y-94600000D02*
X213900000Y-94600000D01*
G75*
G02*
X213975000Y-94675000I0J-75000D01*
G01*
X213975000Y-94825000D01*
G75*
G02*
X213900000Y-94900000I-75000J0D01*
G01*
X212575000Y-94900000D01*
G75*
G02*
X212500000Y-94825000I0J75000D01*
G01*
X212500000Y-94675000D01*
G75*
G02*
X212575000Y-94600000I75000J0D01*
G01*
G37*
G36*
G01*
X212575000Y-95100000D02*
X213900000Y-95100000D01*
G75*
G02*
X213975000Y-95175000I0J-75000D01*
G01*
X213975000Y-95325000D01*
G75*
G02*
X213900000Y-95400000I-75000J0D01*
G01*
X212575000Y-95400000D01*
G75*
G02*
X212500000Y-95325000I0J75000D01*
G01*
X212500000Y-95175000D01*
G75*
G02*
X212575000Y-95100000I75000J0D01*
G01*
G37*
G36*
G01*
X212575000Y-95600000D02*
X213900000Y-95600000D01*
G75*
G02*
X213975000Y-95675000I0J-75000D01*
G01*
X213975000Y-95825000D01*
G75*
G02*
X213900000Y-95900000I-75000J0D01*
G01*
X212575000Y-95900000D01*
G75*
G02*
X212500000Y-95825000I0J75000D01*
G01*
X212500000Y-95675000D01*
G75*
G02*
X212575000Y-95600000I75000J0D01*
G01*
G37*
G36*
G01*
X212575000Y-96100000D02*
X213900000Y-96100000D01*
G75*
G02*
X213975000Y-96175000I0J-75000D01*
G01*
X213975000Y-96325000D01*
G75*
G02*
X213900000Y-96400000I-75000J0D01*
G01*
X212575000Y-96400000D01*
G75*
G02*
X212500000Y-96325000I0J75000D01*
G01*
X212500000Y-96175000D01*
G75*
G02*
X212575000Y-96100000I75000J0D01*
G01*
G37*
G36*
G01*
X212575000Y-96600000D02*
X213900000Y-96600000D01*
G75*
G02*
X213975000Y-96675000I0J-75000D01*
G01*
X213975000Y-96825000D01*
G75*
G02*
X213900000Y-96900000I-75000J0D01*
G01*
X212575000Y-96900000D01*
G75*
G02*
X212500000Y-96825000I0J75000D01*
G01*
X212500000Y-96675000D01*
G75*
G02*
X212575000Y-96600000I75000J0D01*
G01*
G37*
G36*
G01*
X212575000Y-97100000D02*
X213900000Y-97100000D01*
G75*
G02*
X213975000Y-97175000I0J-75000D01*
G01*
X213975000Y-97325000D01*
G75*
G02*
X213900000Y-97400000I-75000J0D01*
G01*
X212575000Y-97400000D01*
G75*
G02*
X212500000Y-97325000I0J75000D01*
G01*
X212500000Y-97175000D01*
G75*
G02*
X212575000Y-97100000I75000J0D01*
G01*
G37*
G36*
G01*
X212575000Y-97600000D02*
X213900000Y-97600000D01*
G75*
G02*
X213975000Y-97675000I0J-75000D01*
G01*
X213975000Y-97825000D01*
G75*
G02*
X213900000Y-97900000I-75000J0D01*
G01*
X212575000Y-97900000D01*
G75*
G02*
X212500000Y-97825000I0J75000D01*
G01*
X212500000Y-97675000D01*
G75*
G02*
X212575000Y-97600000I75000J0D01*
G01*
G37*
G36*
G01*
X212575000Y-98100000D02*
X213900000Y-98100000D01*
G75*
G02*
X213975000Y-98175000I0J-75000D01*
G01*
X213975000Y-98325000D01*
G75*
G02*
X213900000Y-98400000I-75000J0D01*
G01*
X212575000Y-98400000D01*
G75*
G02*
X212500000Y-98325000I0J75000D01*
G01*
X212500000Y-98175000D01*
G75*
G02*
X212575000Y-98100000I75000J0D01*
G01*
G37*
G36*
G01*
X212575000Y-98600000D02*
X213900000Y-98600000D01*
G75*
G02*
X213975000Y-98675000I0J-75000D01*
G01*
X213975000Y-98825000D01*
G75*
G02*
X213900000Y-98900000I-75000J0D01*
G01*
X212575000Y-98900000D01*
G75*
G02*
X212500000Y-98825000I0J75000D01*
G01*
X212500000Y-98675000D01*
G75*
G02*
X212575000Y-98600000I75000J0D01*
G01*
G37*
G36*
G01*
X214575000Y-99425000D02*
X214725000Y-99425000D01*
G75*
G02*
X214800000Y-99500000I0J-75000D01*
G01*
X214800000Y-100825000D01*
G75*
G02*
X214725000Y-100900000I-75000J0D01*
G01*
X214575000Y-100900000D01*
G75*
G02*
X214500000Y-100825000I0J75000D01*
G01*
X214500000Y-99500000D01*
G75*
G02*
X214575000Y-99425000I75000J0D01*
G01*
G37*
G36*
G01*
X215075000Y-99425000D02*
X215225000Y-99425000D01*
G75*
G02*
X215300000Y-99500000I0J-75000D01*
G01*
X215300000Y-100825000D01*
G75*
G02*
X215225000Y-100900000I-75000J0D01*
G01*
X215075000Y-100900000D01*
G75*
G02*
X215000000Y-100825000I0J75000D01*
G01*
X215000000Y-99500000D01*
G75*
G02*
X215075000Y-99425000I75000J0D01*
G01*
G37*
G36*
G01*
X215575000Y-99425000D02*
X215725000Y-99425000D01*
G75*
G02*
X215800000Y-99500000I0J-75000D01*
G01*
X215800000Y-100825000D01*
G75*
G02*
X215725000Y-100900000I-75000J0D01*
G01*
X215575000Y-100900000D01*
G75*
G02*
X215500000Y-100825000I0J75000D01*
G01*
X215500000Y-99500000D01*
G75*
G02*
X215575000Y-99425000I75000J0D01*
G01*
G37*
G36*
G01*
X216075000Y-99425000D02*
X216225000Y-99425000D01*
G75*
G02*
X216300000Y-99500000I0J-75000D01*
G01*
X216300000Y-100825000D01*
G75*
G02*
X216225000Y-100900000I-75000J0D01*
G01*
X216075000Y-100900000D01*
G75*
G02*
X216000000Y-100825000I0J75000D01*
G01*
X216000000Y-99500000D01*
G75*
G02*
X216075000Y-99425000I75000J0D01*
G01*
G37*
G36*
G01*
X216575000Y-99425000D02*
X216725000Y-99425000D01*
G75*
G02*
X216800000Y-99500000I0J-75000D01*
G01*
X216800000Y-100825000D01*
G75*
G02*
X216725000Y-100900000I-75000J0D01*
G01*
X216575000Y-100900000D01*
G75*
G02*
X216500000Y-100825000I0J75000D01*
G01*
X216500000Y-99500000D01*
G75*
G02*
X216575000Y-99425000I75000J0D01*
G01*
G37*
G36*
G01*
X217075000Y-99425000D02*
X217225000Y-99425000D01*
G75*
G02*
X217300000Y-99500000I0J-75000D01*
G01*
X217300000Y-100825000D01*
G75*
G02*
X217225000Y-100900000I-75000J0D01*
G01*
X217075000Y-100900000D01*
G75*
G02*
X217000000Y-100825000I0J75000D01*
G01*
X217000000Y-99500000D01*
G75*
G02*
X217075000Y-99425000I75000J0D01*
G01*
G37*
G36*
G01*
X217575000Y-99425000D02*
X217725000Y-99425000D01*
G75*
G02*
X217800000Y-99500000I0J-75000D01*
G01*
X217800000Y-100825000D01*
G75*
G02*
X217725000Y-100900000I-75000J0D01*
G01*
X217575000Y-100900000D01*
G75*
G02*
X217500000Y-100825000I0J75000D01*
G01*
X217500000Y-99500000D01*
G75*
G02*
X217575000Y-99425000I75000J0D01*
G01*
G37*
G36*
G01*
X218075000Y-99425000D02*
X218225000Y-99425000D01*
G75*
G02*
X218300000Y-99500000I0J-75000D01*
G01*
X218300000Y-100825000D01*
G75*
G02*
X218225000Y-100900000I-75000J0D01*
G01*
X218075000Y-100900000D01*
G75*
G02*
X218000000Y-100825000I0J75000D01*
G01*
X218000000Y-99500000D01*
G75*
G02*
X218075000Y-99425000I75000J0D01*
G01*
G37*
G36*
G01*
X218575000Y-99425000D02*
X218725000Y-99425000D01*
G75*
G02*
X218800000Y-99500000I0J-75000D01*
G01*
X218800000Y-100825000D01*
G75*
G02*
X218725000Y-100900000I-75000J0D01*
G01*
X218575000Y-100900000D01*
G75*
G02*
X218500000Y-100825000I0J75000D01*
G01*
X218500000Y-99500000D01*
G75*
G02*
X218575000Y-99425000I75000J0D01*
G01*
G37*
G36*
G01*
X219075000Y-99425000D02*
X219225000Y-99425000D01*
G75*
G02*
X219300000Y-99500000I0J-75000D01*
G01*
X219300000Y-100825000D01*
G75*
G02*
X219225000Y-100900000I-75000J0D01*
G01*
X219075000Y-100900000D01*
G75*
G02*
X219000000Y-100825000I0J75000D01*
G01*
X219000000Y-99500000D01*
G75*
G02*
X219075000Y-99425000I75000J0D01*
G01*
G37*
G36*
G01*
X219575000Y-99425000D02*
X219725000Y-99425000D01*
G75*
G02*
X219800000Y-99500000I0J-75000D01*
G01*
X219800000Y-100825000D01*
G75*
G02*
X219725000Y-100900000I-75000J0D01*
G01*
X219575000Y-100900000D01*
G75*
G02*
X219500000Y-100825000I0J75000D01*
G01*
X219500000Y-99500000D01*
G75*
G02*
X219575000Y-99425000I75000J0D01*
G01*
G37*
G36*
G01*
X220075000Y-99425000D02*
X220225000Y-99425000D01*
G75*
G02*
X220300000Y-99500000I0J-75000D01*
G01*
X220300000Y-100825000D01*
G75*
G02*
X220225000Y-100900000I-75000J0D01*
G01*
X220075000Y-100900000D01*
G75*
G02*
X220000000Y-100825000I0J75000D01*
G01*
X220000000Y-99500000D01*
G75*
G02*
X220075000Y-99425000I75000J0D01*
G01*
G37*
G36*
G01*
X220900000Y-98600000D02*
X222225000Y-98600000D01*
G75*
G02*
X222300000Y-98675000I0J-75000D01*
G01*
X222300000Y-98825000D01*
G75*
G02*
X222225000Y-98900000I-75000J0D01*
G01*
X220900000Y-98900000D01*
G75*
G02*
X220825000Y-98825000I0J75000D01*
G01*
X220825000Y-98675000D01*
G75*
G02*
X220900000Y-98600000I75000J0D01*
G01*
G37*
G36*
G01*
X220900000Y-98100000D02*
X222225000Y-98100000D01*
G75*
G02*
X222300000Y-98175000I0J-75000D01*
G01*
X222300000Y-98325000D01*
G75*
G02*
X222225000Y-98400000I-75000J0D01*
G01*
X220900000Y-98400000D01*
G75*
G02*
X220825000Y-98325000I0J75000D01*
G01*
X220825000Y-98175000D01*
G75*
G02*
X220900000Y-98100000I75000J0D01*
G01*
G37*
G36*
G01*
X220900000Y-97600000D02*
X222225000Y-97600000D01*
G75*
G02*
X222300000Y-97675000I0J-75000D01*
G01*
X222300000Y-97825000D01*
G75*
G02*
X222225000Y-97900000I-75000J0D01*
G01*
X220900000Y-97900000D01*
G75*
G02*
X220825000Y-97825000I0J75000D01*
G01*
X220825000Y-97675000D01*
G75*
G02*
X220900000Y-97600000I75000J0D01*
G01*
G37*
G36*
G01*
X220900000Y-97100000D02*
X222225000Y-97100000D01*
G75*
G02*
X222300000Y-97175000I0J-75000D01*
G01*
X222300000Y-97325000D01*
G75*
G02*
X222225000Y-97400000I-75000J0D01*
G01*
X220900000Y-97400000D01*
G75*
G02*
X220825000Y-97325000I0J75000D01*
G01*
X220825000Y-97175000D01*
G75*
G02*
X220900000Y-97100000I75000J0D01*
G01*
G37*
G36*
G01*
X220900000Y-96600000D02*
X222225000Y-96600000D01*
G75*
G02*
X222300000Y-96675000I0J-75000D01*
G01*
X222300000Y-96825000D01*
G75*
G02*
X222225000Y-96900000I-75000J0D01*
G01*
X220900000Y-96900000D01*
G75*
G02*
X220825000Y-96825000I0J75000D01*
G01*
X220825000Y-96675000D01*
G75*
G02*
X220900000Y-96600000I75000J0D01*
G01*
G37*
G36*
G01*
X220900000Y-96100000D02*
X222225000Y-96100000D01*
G75*
G02*
X222300000Y-96175000I0J-75000D01*
G01*
X222300000Y-96325000D01*
G75*
G02*
X222225000Y-96400000I-75000J0D01*
G01*
X220900000Y-96400000D01*
G75*
G02*
X220825000Y-96325000I0J75000D01*
G01*
X220825000Y-96175000D01*
G75*
G02*
X220900000Y-96100000I75000J0D01*
G01*
G37*
G36*
G01*
X220900000Y-95600000D02*
X222225000Y-95600000D01*
G75*
G02*
X222300000Y-95675000I0J-75000D01*
G01*
X222300000Y-95825000D01*
G75*
G02*
X222225000Y-95900000I-75000J0D01*
G01*
X220900000Y-95900000D01*
G75*
G02*
X220825000Y-95825000I0J75000D01*
G01*
X220825000Y-95675000D01*
G75*
G02*
X220900000Y-95600000I75000J0D01*
G01*
G37*
G36*
G01*
X220900000Y-95100000D02*
X222225000Y-95100000D01*
G75*
G02*
X222300000Y-95175000I0J-75000D01*
G01*
X222300000Y-95325000D01*
G75*
G02*
X222225000Y-95400000I-75000J0D01*
G01*
X220900000Y-95400000D01*
G75*
G02*
X220825000Y-95325000I0J75000D01*
G01*
X220825000Y-95175000D01*
G75*
G02*
X220900000Y-95100000I75000J0D01*
G01*
G37*
G36*
G01*
X220900000Y-94600000D02*
X222225000Y-94600000D01*
G75*
G02*
X222300000Y-94675000I0J-75000D01*
G01*
X222300000Y-94825000D01*
G75*
G02*
X222225000Y-94900000I-75000J0D01*
G01*
X220900000Y-94900000D01*
G75*
G02*
X220825000Y-94825000I0J75000D01*
G01*
X220825000Y-94675000D01*
G75*
G02*
X220900000Y-94600000I75000J0D01*
G01*
G37*
G36*
G01*
X220900000Y-94100000D02*
X222225000Y-94100000D01*
G75*
G02*
X222300000Y-94175000I0J-75000D01*
G01*
X222300000Y-94325000D01*
G75*
G02*
X222225000Y-94400000I-75000J0D01*
G01*
X220900000Y-94400000D01*
G75*
G02*
X220825000Y-94325000I0J75000D01*
G01*
X220825000Y-94175000D01*
G75*
G02*
X220900000Y-94100000I75000J0D01*
G01*
G37*
G36*
G01*
X220900000Y-93600000D02*
X222225000Y-93600000D01*
G75*
G02*
X222300000Y-93675000I0J-75000D01*
G01*
X222300000Y-93825000D01*
G75*
G02*
X222225000Y-93900000I-75000J0D01*
G01*
X220900000Y-93900000D01*
G75*
G02*
X220825000Y-93825000I0J75000D01*
G01*
X220825000Y-93675000D01*
G75*
G02*
X220900000Y-93600000I75000J0D01*
G01*
G37*
G36*
G01*
X220900000Y-93100000D02*
X222225000Y-93100000D01*
G75*
G02*
X222300000Y-93175000I0J-75000D01*
G01*
X222300000Y-93325000D01*
G75*
G02*
X222225000Y-93400000I-75000J0D01*
G01*
X220900000Y-93400000D01*
G75*
G02*
X220825000Y-93325000I0J75000D01*
G01*
X220825000Y-93175000D01*
G75*
G02*
X220900000Y-93100000I75000J0D01*
G01*
G37*
%TD*%
D18*
%TO.C,U2*%
X224350000Y-145950000D03*
X224350000Y-145000000D03*
X224350000Y-144050000D03*
X221650000Y-144050000D03*
X221650000Y-145950000D03*
%TD*%
D19*
%TO.C,Y1*%
X215750000Y-79550000D03*
X210870000Y-79550000D03*
%TD*%
D20*
%TO.C,Y2*%
X226350000Y-83150000D03*
X224650000Y-83150000D03*
D21*
X225500000Y-78650000D03*
%TD*%
%TO.C,C22*%
G36*
G01*
X162437500Y-104600000D02*
X161962500Y-104600000D01*
G75*
G02*
X161725000Y-104362500I0J237500D01*
G01*
X161725000Y-103762500D01*
G75*
G02*
X161962500Y-103525000I237500J0D01*
G01*
X162437500Y-103525000D01*
G75*
G02*
X162675000Y-103762500I0J-237500D01*
G01*
X162675000Y-104362500D01*
G75*
G02*
X162437500Y-104600000I-237500J0D01*
G01*
G37*
G36*
G01*
X162437500Y-102875000D02*
X161962500Y-102875000D01*
G75*
G02*
X161725000Y-102637500I0J237500D01*
G01*
X161725000Y-102037500D01*
G75*
G02*
X161962500Y-101800000I237500J0D01*
G01*
X162437500Y-101800000D01*
G75*
G02*
X162675000Y-102037500I0J-237500D01*
G01*
X162675000Y-102637500D01*
G75*
G02*
X162437500Y-102875000I-237500J0D01*
G01*
G37*
%TD*%
%TO.C,C23*%
G36*
G01*
X162637500Y-134475000D02*
X162162500Y-134475000D01*
G75*
G02*
X161925000Y-134237500I0J237500D01*
G01*
X161925000Y-133637500D01*
G75*
G02*
X162162500Y-133400000I237500J0D01*
G01*
X162637500Y-133400000D01*
G75*
G02*
X162875000Y-133637500I0J-237500D01*
G01*
X162875000Y-134237500D01*
G75*
G02*
X162637500Y-134475000I-237500J0D01*
G01*
G37*
G36*
G01*
X162637500Y-136200000D02*
X162162500Y-136200000D01*
G75*
G02*
X161925000Y-135962500I0J237500D01*
G01*
X161925000Y-135362500D01*
G75*
G02*
X162162500Y-135125000I237500J0D01*
G01*
X162637500Y-135125000D01*
G75*
G02*
X162875000Y-135362500I0J-237500D01*
G01*
X162875000Y-135962500D01*
G75*
G02*
X162637500Y-136200000I-237500J0D01*
G01*
G37*
%TD*%
D12*
%TO.C,ENC_NAV1*%
X201190000Y-110450000D03*
X203730000Y-110450000D03*
X206270000Y-110450000D03*
X208810000Y-110450000D03*
D13*
X211350000Y-110450000D03*
%TD*%
%TO.C,ENC_NAV2*%
X211350000Y-115616666D03*
D12*
X208810000Y-115616666D03*
X206270000Y-115616666D03*
X203730000Y-115616666D03*
X201190000Y-115616666D03*
%TD*%
D22*
%TO.C,Q1*%
X158600000Y-108350000D03*
X158600000Y-106450000D03*
X156600000Y-107400000D03*
%TD*%
%TO.C,Q2*%
X157400000Y-137800000D03*
X159400000Y-136850000D03*
X159400000Y-138750000D03*
%TD*%
%TO.C,R9*%
G36*
G01*
X162162500Y-113225000D02*
X162637500Y-113225000D01*
G75*
G02*
X162875000Y-113462500I0J-237500D01*
G01*
X162875000Y-113962500D01*
G75*
G02*
X162637500Y-114200000I-237500J0D01*
G01*
X162162500Y-114200000D01*
G75*
G02*
X161925000Y-113962500I0J237500D01*
G01*
X161925000Y-113462500D01*
G75*
G02*
X162162500Y-113225000I237500J0D01*
G01*
G37*
G36*
G01*
X162162500Y-111400000D02*
X162637500Y-111400000D01*
G75*
G02*
X162875000Y-111637500I0J-237500D01*
G01*
X162875000Y-112137500D01*
G75*
G02*
X162637500Y-112375000I-237500J0D01*
G01*
X162162500Y-112375000D01*
G75*
G02*
X161925000Y-112137500I0J237500D01*
G01*
X161925000Y-111637500D01*
G75*
G02*
X162162500Y-111400000I237500J0D01*
G01*
G37*
%TD*%
%TO.C,R10*%
G36*
G01*
X162012500Y-106600000D02*
X162487500Y-106600000D01*
G75*
G02*
X162725000Y-106837500I0J-237500D01*
G01*
X162725000Y-107337500D01*
G75*
G02*
X162487500Y-107575000I-237500J0D01*
G01*
X162012500Y-107575000D01*
G75*
G02*
X161775000Y-107337500I0J237500D01*
G01*
X161775000Y-106837500D01*
G75*
G02*
X162012500Y-106600000I237500J0D01*
G01*
G37*
G36*
G01*
X162012500Y-108425000D02*
X162487500Y-108425000D01*
G75*
G02*
X162725000Y-108662500I0J-237500D01*
G01*
X162725000Y-109162500D01*
G75*
G02*
X162487500Y-109400000I-237500J0D01*
G01*
X162012500Y-109400000D01*
G75*
G02*
X161775000Y-109162500I0J237500D01*
G01*
X161775000Y-108662500D01*
G75*
G02*
X162012500Y-108425000I237500J0D01*
G01*
G37*
%TD*%
%TO.C,R11*%
G36*
G01*
X162362500Y-144025000D02*
X162837500Y-144025000D01*
G75*
G02*
X163075000Y-144262500I0J-237500D01*
G01*
X163075000Y-144762500D01*
G75*
G02*
X162837500Y-145000000I-237500J0D01*
G01*
X162362500Y-145000000D01*
G75*
G02*
X162125000Y-144762500I0J237500D01*
G01*
X162125000Y-144262500D01*
G75*
G02*
X162362500Y-144025000I237500J0D01*
G01*
G37*
G36*
G01*
X162362500Y-142200000D02*
X162837500Y-142200000D01*
G75*
G02*
X163075000Y-142437500I0J-237500D01*
G01*
X163075000Y-142937500D01*
G75*
G02*
X162837500Y-143175000I-237500J0D01*
G01*
X162362500Y-143175000D01*
G75*
G02*
X162125000Y-142937500I0J237500D01*
G01*
X162125000Y-142437500D01*
G75*
G02*
X162362500Y-142200000I237500J0D01*
G01*
G37*
%TD*%
%TO.C,R12*%
G36*
G01*
X162212500Y-137800000D02*
X162687500Y-137800000D01*
G75*
G02*
X162925000Y-138037500I0J-237500D01*
G01*
X162925000Y-138537500D01*
G75*
G02*
X162687500Y-138775000I-237500J0D01*
G01*
X162212500Y-138775000D01*
G75*
G02*
X161975000Y-138537500I0J237500D01*
G01*
X161975000Y-138037500D01*
G75*
G02*
X162212500Y-137800000I237500J0D01*
G01*
G37*
G36*
G01*
X162212500Y-139625000D02*
X162687500Y-139625000D01*
G75*
G02*
X162925000Y-139862500I0J-237500D01*
G01*
X162925000Y-140362500D01*
G75*
G02*
X162687500Y-140600000I-237500J0D01*
G01*
X162212500Y-140600000D01*
G75*
G02*
X161975000Y-140362500I0J237500D01*
G01*
X161975000Y-139862500D01*
G75*
G02*
X162212500Y-139625000I237500J0D01*
G01*
G37*
%TD*%
D23*
%TO.C,H1*%
X130000000Y-80000000D03*
%TD*%
%TO.C,H2*%
X170000000Y-120000000D03*
%TD*%
%TO.C,H3*%
X235000000Y-155000000D03*
%TD*%
%TO.C,H4*%
X130000000Y-155000000D03*
%TD*%
%TO.C,H5*%
X235000000Y-80000000D03*
%TD*%
%TO.C,C16*%
G36*
G01*
X228050001Y-149425000D02*
X226749999Y-149425000D01*
G75*
G02*
X226500000Y-149175001I0J249999D01*
G01*
X226500000Y-148349999D01*
G75*
G02*
X226749999Y-148100000I249999J0D01*
G01*
X228050001Y-148100000D01*
G75*
G02*
X228300000Y-148349999I0J-249999D01*
G01*
X228300000Y-149175001D01*
G75*
G02*
X228050001Y-149425000I-249999J0D01*
G01*
G37*
G36*
G01*
X228050001Y-146300000D02*
X226749999Y-146300000D01*
G75*
G02*
X226500000Y-146050001I0J249999D01*
G01*
X226500000Y-145224999D01*
G75*
G02*
X226749999Y-144975000I249999J0D01*
G01*
X228050001Y-144975000D01*
G75*
G02*
X228300000Y-145224999I0J-249999D01*
G01*
X228300000Y-146050001D01*
G75*
G02*
X228050001Y-146300000I-249999J0D01*
G01*
G37*
%TD*%
%TO.C,C21*%
G36*
G01*
X222300000Y-149349999D02*
X222300000Y-150650001D01*
G75*
G02*
X222050001Y-150900000I-249999J0D01*
G01*
X221224999Y-150900000D01*
G75*
G02*
X220975000Y-150650001I0J249999D01*
G01*
X220975000Y-149349999D01*
G75*
G02*
X221224999Y-149100000I249999J0D01*
G01*
X222050001Y-149100000D01*
G75*
G02*
X222300000Y-149349999I0J-249999D01*
G01*
G37*
G36*
G01*
X225425000Y-149349999D02*
X225425000Y-150650001D01*
G75*
G02*
X225175001Y-150900000I-249999J0D01*
G01*
X224349999Y-150900000D01*
G75*
G02*
X224100000Y-150650001I0J249999D01*
G01*
X224100000Y-149349999D01*
G75*
G02*
X224349999Y-149100000I249999J0D01*
G01*
X225175001Y-149100000D01*
G75*
G02*
X225425000Y-149349999I0J-249999D01*
G01*
G37*
%TD*%
D13*
%TO.C,J3*%
X204000000Y-134200000D03*
D12*
X201460000Y-134200000D03*
X204000000Y-136740000D03*
X201460000Y-136740000D03*
X204000000Y-139280000D03*
X201460000Y-139280000D03*
X204000000Y-141820000D03*
X201460000Y-141820000D03*
X204000000Y-144360000D03*
X201460000Y-144360000D03*
%TD*%
%TO.C,U3*%
G36*
G01*
X170750000Y-103090000D02*
X170750000Y-102790000D01*
G75*
G02*
X170900000Y-102640000I150000J0D01*
G01*
X172550000Y-102640000D01*
G75*
G02*
X172700000Y-102790000I0J-150000D01*
G01*
X172700000Y-103090000D01*
G75*
G02*
X172550000Y-103240000I-150000J0D01*
G01*
X170900000Y-103240000D01*
G75*
G02*
X170750000Y-103090000I0J150000D01*
G01*
G37*
G36*
G01*
X170750000Y-104360000D02*
X170750000Y-104060000D01*
G75*
G02*
X170900000Y-103910000I150000J0D01*
G01*
X172550000Y-103910000D01*
G75*
G02*
X172700000Y-104060000I0J-150000D01*
G01*
X172700000Y-104360000D01*
G75*
G02*
X172550000Y-104510000I-150000J0D01*
G01*
X170900000Y-104510000D01*
G75*
G02*
X170750000Y-104360000I0J150000D01*
G01*
G37*
G36*
G01*
X170750000Y-105630000D02*
X170750000Y-105330000D01*
G75*
G02*
X170900000Y-105180000I150000J0D01*
G01*
X172550000Y-105180000D01*
G75*
G02*
X172700000Y-105330000I0J-150000D01*
G01*
X172700000Y-105630000D01*
G75*
G02*
X172550000Y-105780000I-150000J0D01*
G01*
X170900000Y-105780000D01*
G75*
G02*
X170750000Y-105630000I0J150000D01*
G01*
G37*
G36*
G01*
X170750000Y-106900000D02*
X170750000Y-106600000D01*
G75*
G02*
X170900000Y-106450000I150000J0D01*
G01*
X172550000Y-106450000D01*
G75*
G02*
X172700000Y-106600000I0J-150000D01*
G01*
X172700000Y-106900000D01*
G75*
G02*
X172550000Y-107050000I-150000J0D01*
G01*
X170900000Y-107050000D01*
G75*
G02*
X170750000Y-106900000I0J150000D01*
G01*
G37*
G36*
G01*
X170750000Y-108170000D02*
X170750000Y-107870000D01*
G75*
G02*
X170900000Y-107720000I150000J0D01*
G01*
X172550000Y-107720000D01*
G75*
G02*
X172700000Y-107870000I0J-150000D01*
G01*
X172700000Y-108170000D01*
G75*
G02*
X172550000Y-108320000I-150000J0D01*
G01*
X170900000Y-108320000D01*
G75*
G02*
X170750000Y-108170000I0J150000D01*
G01*
G37*
G36*
G01*
X170750000Y-109440000D02*
X170750000Y-109140000D01*
G75*
G02*
X170900000Y-108990000I150000J0D01*
G01*
X172550000Y-108990000D01*
G75*
G02*
X172700000Y-109140000I0J-150000D01*
G01*
X172700000Y-109440000D01*
G75*
G02*
X172550000Y-109590000I-150000J0D01*
G01*
X170900000Y-109590000D01*
G75*
G02*
X170750000Y-109440000I0J150000D01*
G01*
G37*
G36*
G01*
X170750000Y-110710000D02*
X170750000Y-110410000D01*
G75*
G02*
X170900000Y-110260000I150000J0D01*
G01*
X172550000Y-110260000D01*
G75*
G02*
X172700000Y-110410000I0J-150000D01*
G01*
X172700000Y-110710000D01*
G75*
G02*
X172550000Y-110860000I-150000J0D01*
G01*
X170900000Y-110860000D01*
G75*
G02*
X170750000Y-110710000I0J150000D01*
G01*
G37*
G36*
G01*
X165800000Y-110710000D02*
X165800000Y-110410000D01*
G75*
G02*
X165950000Y-110260000I150000J0D01*
G01*
X167600000Y-110260000D01*
G75*
G02*
X167750000Y-110410000I0J-150000D01*
G01*
X167750000Y-110710000D01*
G75*
G02*
X167600000Y-110860000I-150000J0D01*
G01*
X165950000Y-110860000D01*
G75*
G02*
X165800000Y-110710000I0J150000D01*
G01*
G37*
G36*
G01*
X165800000Y-109440000D02*
X165800000Y-109140000D01*
G75*
G02*
X165950000Y-108990000I150000J0D01*
G01*
X167600000Y-108990000D01*
G75*
G02*
X167750000Y-109140000I0J-150000D01*
G01*
X167750000Y-109440000D01*
G75*
G02*
X167600000Y-109590000I-150000J0D01*
G01*
X165950000Y-109590000D01*
G75*
G02*
X165800000Y-109440000I0J150000D01*
G01*
G37*
G36*
G01*
X165800000Y-108170000D02*
X165800000Y-107870000D01*
G75*
G02*
X165950000Y-107720000I150000J0D01*
G01*
X167600000Y-107720000D01*
G75*
G02*
X167750000Y-107870000I0J-150000D01*
G01*
X167750000Y-108170000D01*
G75*
G02*
X167600000Y-108320000I-150000J0D01*
G01*
X165950000Y-108320000D01*
G75*
G02*
X165800000Y-108170000I0J150000D01*
G01*
G37*
G36*
G01*
X165800000Y-106900000D02*
X165800000Y-106600000D01*
G75*
G02*
X165950000Y-106450000I150000J0D01*
G01*
X167600000Y-106450000D01*
G75*
G02*
X167750000Y-106600000I0J-150000D01*
G01*
X167750000Y-106900000D01*
G75*
G02*
X167600000Y-107050000I-150000J0D01*
G01*
X165950000Y-107050000D01*
G75*
G02*
X165800000Y-106900000I0J150000D01*
G01*
G37*
G36*
G01*
X165800000Y-105630000D02*
X165800000Y-105330000D01*
G75*
G02*
X165950000Y-105180000I150000J0D01*
G01*
X167600000Y-105180000D01*
G75*
G02*
X167750000Y-105330000I0J-150000D01*
G01*
X167750000Y-105630000D01*
G75*
G02*
X167600000Y-105780000I-150000J0D01*
G01*
X165950000Y-105780000D01*
G75*
G02*
X165800000Y-105630000I0J150000D01*
G01*
G37*
G36*
G01*
X165800000Y-104360000D02*
X165800000Y-104060000D01*
G75*
G02*
X165950000Y-103910000I150000J0D01*
G01*
X167600000Y-103910000D01*
G75*
G02*
X167750000Y-104060000I0J-150000D01*
G01*
X167750000Y-104360000D01*
G75*
G02*
X167600000Y-104510000I-150000J0D01*
G01*
X165950000Y-104510000D01*
G75*
G02*
X165800000Y-104360000I0J150000D01*
G01*
G37*
G36*
G01*
X165800000Y-103090000D02*
X165800000Y-102790000D01*
G75*
G02*
X165950000Y-102640000I150000J0D01*
G01*
X167600000Y-102640000D01*
G75*
G02*
X167750000Y-102790000I0J-150000D01*
G01*
X167750000Y-103090000D01*
G75*
G02*
X167600000Y-103240000I-150000J0D01*
G01*
X165950000Y-103240000D01*
G75*
G02*
X165800000Y-103090000I0J150000D01*
G01*
G37*
%TD*%
%TO.C,U4*%
G36*
G01*
X166250000Y-134290000D02*
X166250000Y-133990000D01*
G75*
G02*
X166400000Y-133840000I150000J0D01*
G01*
X168050000Y-133840000D01*
G75*
G02*
X168200000Y-133990000I0J-150000D01*
G01*
X168200000Y-134290000D01*
G75*
G02*
X168050000Y-134440000I-150000J0D01*
G01*
X166400000Y-134440000D01*
G75*
G02*
X166250000Y-134290000I0J150000D01*
G01*
G37*
G36*
G01*
X166250000Y-135560000D02*
X166250000Y-135260000D01*
G75*
G02*
X166400000Y-135110000I150000J0D01*
G01*
X168050000Y-135110000D01*
G75*
G02*
X168200000Y-135260000I0J-150000D01*
G01*
X168200000Y-135560000D01*
G75*
G02*
X168050000Y-135710000I-150000J0D01*
G01*
X166400000Y-135710000D01*
G75*
G02*
X166250000Y-135560000I0J150000D01*
G01*
G37*
G36*
G01*
X166250000Y-136830000D02*
X166250000Y-136530000D01*
G75*
G02*
X166400000Y-136380000I150000J0D01*
G01*
X168050000Y-136380000D01*
G75*
G02*
X168200000Y-136530000I0J-150000D01*
G01*
X168200000Y-136830000D01*
G75*
G02*
X168050000Y-136980000I-150000J0D01*
G01*
X166400000Y-136980000D01*
G75*
G02*
X166250000Y-136830000I0J150000D01*
G01*
G37*
G36*
G01*
X166250000Y-138100000D02*
X166250000Y-137800000D01*
G75*
G02*
X166400000Y-137650000I150000J0D01*
G01*
X168050000Y-137650000D01*
G75*
G02*
X168200000Y-137800000I0J-150000D01*
G01*
X168200000Y-138100000D01*
G75*
G02*
X168050000Y-138250000I-150000J0D01*
G01*
X166400000Y-138250000D01*
G75*
G02*
X166250000Y-138100000I0J150000D01*
G01*
G37*
G36*
G01*
X166250000Y-139370000D02*
X166250000Y-139070000D01*
G75*
G02*
X166400000Y-138920000I150000J0D01*
G01*
X168050000Y-138920000D01*
G75*
G02*
X168200000Y-139070000I0J-150000D01*
G01*
X168200000Y-139370000D01*
G75*
G02*
X168050000Y-139520000I-150000J0D01*
G01*
X166400000Y-139520000D01*
G75*
G02*
X166250000Y-139370000I0J150000D01*
G01*
G37*
G36*
G01*
X166250000Y-140640000D02*
X166250000Y-140340000D01*
G75*
G02*
X166400000Y-140190000I150000J0D01*
G01*
X168050000Y-140190000D01*
G75*
G02*
X168200000Y-140340000I0J-150000D01*
G01*
X168200000Y-140640000D01*
G75*
G02*
X168050000Y-140790000I-150000J0D01*
G01*
X166400000Y-140790000D01*
G75*
G02*
X166250000Y-140640000I0J150000D01*
G01*
G37*
G36*
G01*
X166250000Y-141910000D02*
X166250000Y-141610000D01*
G75*
G02*
X166400000Y-141460000I150000J0D01*
G01*
X168050000Y-141460000D01*
G75*
G02*
X168200000Y-141610000I0J-150000D01*
G01*
X168200000Y-141910000D01*
G75*
G02*
X168050000Y-142060000I-150000J0D01*
G01*
X166400000Y-142060000D01*
G75*
G02*
X166250000Y-141910000I0J150000D01*
G01*
G37*
G36*
G01*
X171200000Y-141910000D02*
X171200000Y-141610000D01*
G75*
G02*
X171350000Y-141460000I150000J0D01*
G01*
X173000000Y-141460000D01*
G75*
G02*
X173150000Y-141610000I0J-150000D01*
G01*
X173150000Y-141910000D01*
G75*
G02*
X173000000Y-142060000I-150000J0D01*
G01*
X171350000Y-142060000D01*
G75*
G02*
X171200000Y-141910000I0J150000D01*
G01*
G37*
G36*
G01*
X171200000Y-140640000D02*
X171200000Y-140340000D01*
G75*
G02*
X171350000Y-140190000I150000J0D01*
G01*
X173000000Y-140190000D01*
G75*
G02*
X173150000Y-140340000I0J-150000D01*
G01*
X173150000Y-140640000D01*
G75*
G02*
X173000000Y-140790000I-150000J0D01*
G01*
X171350000Y-140790000D01*
G75*
G02*
X171200000Y-140640000I0J150000D01*
G01*
G37*
G36*
G01*
X171200000Y-139370000D02*
X171200000Y-139070000D01*
G75*
G02*
X171350000Y-138920000I150000J0D01*
G01*
X173000000Y-138920000D01*
G75*
G02*
X173150000Y-139070000I0J-150000D01*
G01*
X173150000Y-139370000D01*
G75*
G02*
X173000000Y-139520000I-150000J0D01*
G01*
X171350000Y-139520000D01*
G75*
G02*
X171200000Y-139370000I0J150000D01*
G01*
G37*
G36*
G01*
X171200000Y-138100000D02*
X171200000Y-137800000D01*
G75*
G02*
X171350000Y-137650000I150000J0D01*
G01*
X173000000Y-137650000D01*
G75*
G02*
X173150000Y-137800000I0J-150000D01*
G01*
X173150000Y-138100000D01*
G75*
G02*
X173000000Y-138250000I-150000J0D01*
G01*
X171350000Y-138250000D01*
G75*
G02*
X171200000Y-138100000I0J150000D01*
G01*
G37*
G36*
G01*
X171200000Y-136830000D02*
X171200000Y-136530000D01*
G75*
G02*
X171350000Y-136380000I150000J0D01*
G01*
X173000000Y-136380000D01*
G75*
G02*
X173150000Y-136530000I0J-150000D01*
G01*
X173150000Y-136830000D01*
G75*
G02*
X173000000Y-136980000I-150000J0D01*
G01*
X171350000Y-136980000D01*
G75*
G02*
X171200000Y-136830000I0J150000D01*
G01*
G37*
G36*
G01*
X171200000Y-135560000D02*
X171200000Y-135260000D01*
G75*
G02*
X171350000Y-135110000I150000J0D01*
G01*
X173000000Y-135110000D01*
G75*
G02*
X173150000Y-135260000I0J-150000D01*
G01*
X173150000Y-135560000D01*
G75*
G02*
X173000000Y-135710000I-150000J0D01*
G01*
X171350000Y-135710000D01*
G75*
G02*
X171200000Y-135560000I0J150000D01*
G01*
G37*
G36*
G01*
X171200000Y-134290000D02*
X171200000Y-133990000D01*
G75*
G02*
X171350000Y-133840000I150000J0D01*
G01*
X173000000Y-133840000D01*
G75*
G02*
X173150000Y-133990000I0J-150000D01*
G01*
X173150000Y-134290000D01*
G75*
G02*
X173000000Y-134440000I-150000J0D01*
G01*
X171350000Y-134440000D01*
G75*
G02*
X171200000Y-134290000I0J150000D01*
G01*
G37*
%TD*%
%TO.C,R13*%
G36*
G01*
X214225000Y-144837500D02*
X214225000Y-144362500D01*
G75*
G02*
X214462500Y-144125000I237500J0D01*
G01*
X214962500Y-144125000D01*
G75*
G02*
X215200000Y-144362500I0J-237500D01*
G01*
X215200000Y-144837500D01*
G75*
G02*
X214962500Y-145075000I-237500J0D01*
G01*
X214462500Y-145075000D01*
G75*
G02*
X214225000Y-144837500I0J237500D01*
G01*
G37*
G36*
G01*
X212400000Y-144837500D02*
X212400000Y-144362500D01*
G75*
G02*
X212637500Y-144125000I237500J0D01*
G01*
X213137500Y-144125000D01*
G75*
G02*
X213375000Y-144362500I0J-237500D01*
G01*
X213375000Y-144837500D01*
G75*
G02*
X213137500Y-145075000I-237500J0D01*
G01*
X212637500Y-145075000D01*
G75*
G02*
X212400000Y-144837500I0J237500D01*
G01*
G37*
%TD*%
%TO.C,R14*%
G36*
G01*
X212400000Y-142037500D02*
X212400000Y-141562500D01*
G75*
G02*
X212637500Y-141325000I237500J0D01*
G01*
X213137500Y-141325000D01*
G75*
G02*
X213375000Y-141562500I0J-237500D01*
G01*
X213375000Y-142037500D01*
G75*
G02*
X213137500Y-142275000I-237500J0D01*
G01*
X212637500Y-142275000D01*
G75*
G02*
X212400000Y-142037500I0J237500D01*
G01*
G37*
G36*
G01*
X214225000Y-142037500D02*
X214225000Y-141562500D01*
G75*
G02*
X214462500Y-141325000I237500J0D01*
G01*
X214962500Y-141325000D01*
G75*
G02*
X215200000Y-141562500I0J-237500D01*
G01*
X215200000Y-142037500D01*
G75*
G02*
X214962500Y-142275000I-237500J0D01*
G01*
X214462500Y-142275000D01*
G75*
G02*
X214225000Y-142037500I0J237500D01*
G01*
G37*
%TD*%
M02*
