M48
INCH,TZ
T1C0.0157
T2C0.0197
T3C0.0300
T4C0.0315
T5C0.0394
T6C0.0827
T7C0.1260
%
G90
G05
T1
X41575Y-34882
X45276Y-57638
X45984Y-61339
X49921Y-57638
X50000Y-35512
X50000Y-44724
X50000Y-52598
X53465Y-30945
X53780Y-39055
X54409Y-61260
X58189Y-35197
X58976Y-45197
X59213Y-52520
X62677Y-46772
X63150Y-41575
X63307Y-54882
X63386Y-54016
X63858Y-39685
X63858Y-60157
X63937Y-52047
X64646Y-40236
X64646Y-43228
X64724Y-52756
X64803Y-41339
X64882Y-54803
X64961Y-53937
X66299Y-42835
X66457Y-50000
X66614Y-40945
X66693Y-52913
X66693Y-55354
X66850Y-42441
X66850Y-54646
X67008Y-44331
X67087Y-53465
X67122Y-55751
X67402Y-38346
X67402Y-57717
X68661Y-54331
X70236Y-34803
X70709Y-60000
X71102Y-32913
X71102Y-49370
X71260Y-43386
X71575Y-45512
X72441Y-38819
X72756Y-34409
X74488Y-50394
X75039Y-42913
X75591Y-53150
X76929Y-34331
X77087Y-42205
X77165Y-43228
X77323Y-40472
X77717Y-50709
X78425Y-60866
X78504Y-31181
X78583Y-37638
X79055Y-42520
X79213Y-41496
X79370Y-40394
X80000Y-38504
X80551Y-31417
X80630Y-40394
X81024Y-40738
X81417Y-41654
X81732Y-54882
X82520Y-32677
X82913Y-60787
X82992Y-53543
X83228Y-39528
X83228Y-40000
X83233Y-37879
X83386Y-40394
X83937Y-40472
X84252Y-41024
X84252Y-52205
X84252Y-54882
X84331Y-35039
X84488Y-41417
X84724Y-34488
X84816Y-37835
X85039Y-56772
X85197Y-44173
X85197Y-52598
X85276Y-36929
X85276Y-38297
X85276Y-43622
X85512Y-55197
X85591Y-38583
X86063Y-38740
X86299Y-57165
X86378Y-37165
X86378Y-37559
X86378Y-38110
X86693Y-53543
X86772Y-40030
X86772Y-55591
X87008Y-39685
X87402Y-36378
X87402Y-50787
X87638Y-44409
X87872Y-36770
X88189Y-39764
X88346Y-38583
X88898Y-57087
X89134Y-37953
X89449Y-56378
X89606Y-54724
X92047Y-34331
X93150Y-51654
T2
X88445Y-32736
X89114Y-32736
T3
X41831Y-60039
X42815Y-32480
X42815Y-60039
X43799Y-60039
X44783Y-32480
X44783Y-60039
X57579Y-60039
X58563Y-32480
X58563Y-60039
X59547Y-60039
X60531Y-32480
X60531Y-60039
X73327Y-59921
X74311Y-32362
X74311Y-59921
X75295Y-59921
X76280Y-32362
X76280Y-59921
T4
X83020Y-31319
X84941Y-31319
T5
X79201Y-47552
X79201Y-49587
X79209Y-43484
X79209Y-45518
X79315Y-52835
X79315Y-53835
X79315Y-54835
X79315Y-55835
X79315Y-56835
X80201Y-47552
X80201Y-49587
X80209Y-43484
X80209Y-45518
X80315Y-52835
X80315Y-53835
X80315Y-54835
X80315Y-55835
X80315Y-56835
X81201Y-47552
X81201Y-49587
X81209Y-43484
X81209Y-45518
X82209Y-43484
X82209Y-45518
X83209Y-43484
X83209Y-45518
X85457Y-61102
X86457Y-61102
X89528Y-41496
X89535Y-43543
X89535Y-45774
X89535Y-48005
X89535Y-50236
X90528Y-41496
X90535Y-43543
X90535Y-45774
X90535Y-48005
X90535Y-50236
X91496Y-36378
X91496Y-37378
X91496Y-38378
X91528Y-41496
X91535Y-43543
X91535Y-45774
X91535Y-48005
X91535Y-50236
X92496Y-36378
X92496Y-37378
X92496Y-38378
X92528Y-41496
T6
X43307Y-37402
X43307Y-56102
X59055Y-37402
X59055Y-56102
X74803Y-37283
X74803Y-55984
T7
X51181Y-31496
X51181Y-61024
X66929Y-47244
X92520Y-31496
X92520Y-61024
T0
M30
