%TF.GenerationSoftware,KiCad,Pcbnew,5.1.10-88a1d61d58~88~ubuntu20.04.1*%
%TF.CreationDate,2021-05-18T23:57:07+02:00*%
%TF.ProjectId,C152Quadrant,43313532-5175-4616-9472-616e742e6b69,rev?*%
%TF.SameCoordinates,Original*%
%TF.FileFunction,Soldermask,Bot*%
%TF.FilePolarity,Negative*%
%FSLAX46Y46*%
G04 Gerber Fmt 4.6, Leading zero omitted, Abs format (unit mm)*
G04 Created by KiCad (PCBNEW 5.1.10-88a1d61d58~88~ubuntu20.04.1) date 2021-05-18 23:57:07*
%MOMM*%
%LPD*%
G01*
G04 APERTURE LIST*
%ADD10C,3.200000*%
%ADD11C,1.524000*%
%ADD12O,1.700000X1.700000*%
%ADD13R,1.700000X1.700000*%
%ADD14C,0.900000*%
%ADD15C,1.500000*%
%ADD16C,1.000000*%
%ADD17C,5.600000*%
G04 APERTURE END LIST*
D10*
%TO.C,RV_MIXT1*%
X190000000Y-94700000D03*
X190000000Y-142200000D03*
D11*
X193750000Y-82200000D03*
X188750000Y-82200000D03*
X193750000Y-152200000D03*
X191250000Y-152200000D03*
X186250000Y-152200000D03*
X188750000Y-152200000D03*
%TD*%
D10*
%TO.C,RV_CARB1*%
X110000000Y-95000000D03*
X110000000Y-142500000D03*
D11*
X113750000Y-82500000D03*
X108750000Y-82500000D03*
X113750000Y-152500000D03*
X111250000Y-152500000D03*
X106250000Y-152500000D03*
X108750000Y-152500000D03*
%TD*%
D10*
%TO.C,RV_THROT1*%
X150000000Y-95000000D03*
X150000000Y-142500000D03*
D11*
X153750000Y-82500000D03*
X148750000Y-82500000D03*
X153750000Y-152500000D03*
X151250000Y-152500000D03*
X146250000Y-152500000D03*
X148750000Y-152500000D03*
%TD*%
D12*
%TO.C,ENC_ALT1*%
X227420000Y-110600000D03*
X229960000Y-110600000D03*
D13*
X232500000Y-110600000D03*
%TD*%
%TO.C,ENC_COMP1*%
X232500000Y-116266666D03*
D12*
X229960000Y-116266666D03*
X227420000Y-116266666D03*
%TD*%
%TO.C,ENC_NAV1_SW1*%
X227420000Y-121933332D03*
X229960000Y-121933332D03*
D13*
X232500000Y-121933332D03*
%TD*%
%TO.C,ENC_NAV2_SW1*%
X232500000Y-127600000D03*
D12*
X229960000Y-127600000D03*
X227420000Y-127600000D03*
%TD*%
D13*
%TO.C,J1*%
X232400000Y-92400000D03*
D12*
X234940000Y-92400000D03*
X232400000Y-94940000D03*
X234940000Y-94940000D03*
X232400000Y-97480000D03*
X234940000Y-97480000D03*
%TD*%
D14*
%TO.C,J2*%
X235000000Y-142200000D03*
X235000000Y-137800000D03*
%TD*%
D13*
%TO.C,PWRLED1*%
X219600000Y-155200000D03*
D12*
X217060000Y-155200000D03*
%TD*%
%TO.C,RV_FLAPS1*%
X201170000Y-125950000D03*
X203710000Y-125950000D03*
D13*
X206250000Y-125950000D03*
%TD*%
%TO.C,RV_TRIM1*%
X206250000Y-120783332D03*
D12*
X203710000Y-120783332D03*
X201170000Y-120783332D03*
%TD*%
D13*
%TO.C,STLNK1*%
X227400000Y-105400000D03*
D12*
X229940000Y-105400000D03*
X232480000Y-105400000D03*
X235020000Y-105400000D03*
%TD*%
D15*
%TO.C,Y1*%
X215750000Y-79550000D03*
X210870000Y-79550000D03*
%TD*%
D16*
%TO.C,Y2*%
X226350000Y-83150000D03*
X224650000Y-83150000D03*
%TD*%
D12*
%TO.C,ENC_NAV1*%
X201190000Y-110450000D03*
X203730000Y-110450000D03*
X206270000Y-110450000D03*
X208810000Y-110450000D03*
D13*
X211350000Y-110450000D03*
%TD*%
%TO.C,ENC_NAV2*%
X211350000Y-115616666D03*
D12*
X208810000Y-115616666D03*
X206270000Y-115616666D03*
X203730000Y-115616666D03*
X201190000Y-115616666D03*
%TD*%
D17*
%TO.C,H1*%
X130000000Y-80000000D03*
%TD*%
%TO.C,H2*%
X170000000Y-120000000D03*
%TD*%
%TO.C,H3*%
X235000000Y-155000000D03*
%TD*%
%TO.C,H4*%
X130000000Y-155000000D03*
%TD*%
%TO.C,H5*%
X235000000Y-80000000D03*
%TD*%
D13*
%TO.C,J3*%
X204000000Y-134200000D03*
D12*
X201460000Y-134200000D03*
X204000000Y-136740000D03*
X201460000Y-136740000D03*
X204000000Y-139280000D03*
X201460000Y-139280000D03*
X204000000Y-141820000D03*
X201460000Y-141820000D03*
X204000000Y-144360000D03*
X201460000Y-144360000D03*
%TD*%
M02*
